<?xml version="1.0" encoding="UTF-8"?>
<!DOCTYPE svg PUBLIC "-//W3C//DTD SVG 1.1//EN" "http://www.w3.org/Graphics/SVG/1.1/DTD/svg11.dtd">
<!-- Creator: CorelDRAW -->
<svg xmlns="http://www.w3.org/2000/svg" xml:space="preserve" width="2048px" height="2048px" style="shape-rendering:geometricPrecision; text-rendering:geometricPrecision; image-rendering:optimizeQuality; fill-rule:evenodd; clip-rule:evenodd"
viewBox="0 0 2048 2048"
 xmlns:xlink="http://www.w3.org/1999/xlink">
 <defs>
  <style type="text/css">
   <![CDATA[
    .fil2 {fill:none}
    .fil1 {fill:#212121;fill-rule:nonzero}
    .fil0 {fill:#66BB6A;fill-rule:nonzero}
   ]]>
  </style>
 </defs>
 <g id="Layer_x0020_1">
  <metadata id="CorelCorpID_0Corel-Layer"/>
  <path class="fil0" d="M932.44 842.819l22.2106 0c6.45827,0 12.3201,2.55236 16.6335,6.70158 8.5878,6.85749 17.5264,12.3284 26.6882,16.0264 8.42245,3.4004 17.1331,5.26772 26.0292,5.26772 8.89607,0 17.6067,-1.86732 26.0292,-5.26772 9.67796,-3.90591 19.1055,-9.79017 28.1339,-17.1969l15.1878 18.4689 -15.2221 -18.5551c4.46811,-3.66496 9.86221,-5.44725 15.2221,-5.44489l0.056693 0 22.154 0c51.8457,0 98.9623,21.1937 133.104,55.3347 34.141,34.1422 55.3347,81.2587 55.3347,133.104l0 98.6658c0,13.2543 -10.7457,24 -24,24l-512.001 0c-13.2543,0 -24,-10.7457 -24,-24l0 -98.6658c0,-51.8457 21.1937,-98.9623 55.3347,-133.104 34.1422,-34.141 81.2587,-55.3347 133.104,-55.3347zm14.1012 48l-14.1012 0c-38.5949,0 -73.7008,15.8079 -99.1666,41.2725 -25.4646,25.4658 -41.2725,60.5717 -41.2725,99.1666l0 74.6658 464.001 0 0 -74.6658c0,-38.5949 -15.8079,-73.7008 -41.2725,-99.1666 -25.4658,-25.4646 -60.5717,-41.2725 -99.1666,-41.2725l-14.1012 0c-10.6961,7.94764 -21.9319,14.4496 -33.6177,19.1658 -14.1201,5.7 -28.7858,8.82993 -43.8426,8.82993 -15.0567,0 -29.7225,-3.12992 -43.8426,-8.82993 -11.6858,-4.71615 -22.9217,-11.2181 -33.6177,-19.1658z"/>
  <path class="fil0" d="M1024 403.041c54.4465,0 104.081,13.3665 139.559,41.7366 33.3485,26.6669 53.7107,65.5087 53.7107,117.619 0,55.2508 -24.1701,129.036 -62.4142,184.52 -33.8847,49.1599 -79.3914,85.056 -130.856,85.056 -51.4642,0 -96.9709,-35.8961 -130.856,-85.056 -38.2441,-55.4847 -62.4142,-129.269 -62.4142,-184.52 0,-52.1103 20.3622,-90.952 53.7107,-117.619 35.478,-28.3701 85.1127,-41.7366 139.559,-41.7366zm109.746 79.0501c-26.3941,-21.1063 -65.5512,-31.05 -109.746,-31.05 -44.1945,0 -83.3516,9.94371 -109.746,31.05 -22.0571,17.6374 -35.524,44.087 -35.524,80.3056 0,46.6229 20.8299,109.517 53.7898,157.334 25.5921,37.1292 57.8493,64.2426 91.48,64.2426 33.6307,0 65.8878,-27.1134 91.48,-64.2426 32.9599,-47.817 53.7898,-110.711 53.7898,-157.334 0,-36.2185 -13.4669,-62.6682 -35.524,-80.3056z"/>
  <path class="fil1" d="M1471.79 1372.72l18.9295 0c6.45,0 12.3036,2.54528 16.6169,6.68504 6.97796,5.54292 14.2205,9.96142 21.6189,12.9484 6.75827,2.72835 13.7421,4.22599 20.8689,4.22599 7.1256,0 14.1095,-1.49764 20.8689,-4.22599 7.90512,-3.19134 15.6307,-8.01733 23.048,-14.1024l15.1878 18.4689 -15.2232 -18.554c4.46693,-3.66614 9.86221,-5.44961 15.2232,-5.44607l0.0543308 0 18.8752 0c45.1654,0 86.2087,18.4606 115.947,48.1985 29.7378,29.739 48.1985,70.7823 48.1985,115.947l0 84.0886c0,13.2543 -10.7457,24 -24,24l-436.36 0c-13.2543,0 -24,-10.7457 -24,-24l0 -84.0886c0,-45.1654 18.4606,-86.2087 48.1985,-115.947 29.739,-29.7378 70.7823,-48.1985 115.948,-48.1985zm10.8744 48l-10.8744 0c-31.9146,0 -60.9473,13.0748 -82.0099,34.1362 -21.0614,21.0614 -34.1362,50.0941 -34.1362,82.0087l0 60.0886 388.36 0 0 -60.0886c0,-31.9134 -13.0748,-60.9461 -34.1362,-82.0087 -21.0614,-21.0614 -50.0941,-34.1362 -82.0087,-34.1362l-10.8744 0c-9.06851,6.63189 -18.5835,12.078 -28.4776,16.0713 -12.4571,5.02796 -25.3961,7.78819 -38.6823,7.78819 -13.2862,0 -26.2252,-2.76024 -38.6823,-7.78819 -9.89292,-3.99449 -19.4091,-9.44056 -28.4776,-16.0713z"/>
  <path class="fil1" d="M1549.82 990.914c47.1591,0 90.2351,11.6433 121.143,36.3603 29.2559,23.3941 47.1189,57.4146 47.1189,102.998 0,47.726 -20.8465,111.415 -53.8311,159.268 -29.4898,42.7843 -69.2516,74.028 -114.431,74.028 -45.1784,0 -84.9414,-31.2425 -114.432,-74.0268 -32.9835,-47.8548 -53.83,-111.543 -53.83,-159.269 0,-45.5835 17.863,-79.604 47.1189,-102.998 30.9083,-24.7169 73.9843,-36.3603 121.143,-36.3603zm91.33 73.6737c-21.8244,-17.452 -54.4217,-25.6736 -91.33,-25.6736 -36.9083,0 -69.5056,8.22166 -91.33,25.6736 -17.9634,14.3646 -28.9323,35.9918 -28.9323,65.6847 0,39.0981 17.5063,91.8957 45.2055,132.083 21.1984,30.7547 47.7118,53.2134 75.0568,53.2134 27.3449,0 53.8571,-22.4599 75.0556,-53.2146 27.7004,-40.1859 45.2067,-92.9847 45.2067,-132.082 0,-29.6929 -10.9689,-51.3201 -28.9323,-65.6847z"/>
  <path class="fil1" d="M420.146 1372.72l18.9295 0c6.44646,0 12.2988,2.54292 16.611,6.67914 6.98032,5.54528 14.224,9.96615 21.6248,12.9543 6.75945,2.72835 13.7433,4.22599 20.8689,4.22599 7.12678,0 14.1106,-1.49764 20.8689,-4.22599 7.90631,-3.19134 15.6319,-8.01733 23.0492,-14.1024l15.1878 18.4689 -15.2221 -18.5551c4.46811,-3.66496 9.86221,-5.44725 15.2221,-5.44489l0.056693 0 18.8728 0c45.1642,0 86.2075,18.4606 115.947,48.1985 29.7378,29.739 48.1985,70.7823 48.1985,115.947l0 84.0886c0,13.2543 -10.7457,24 -24,24l-436.36 0c-13.2543,0 -24,-10.7457 -24,-24l0 -84.0886c0,-45.1642 18.4606,-86.2075 48.1985,-115.947 29.7378,-29.7378 70.7812,-48.1985 115.947,-48.1985zm10.8744 48l-10.8744 0c-31.9146,0 -60.9473,13.0748 -82.0087,34.1362 -21.0614,21.0626 -34.1362,50.0953 -34.1362,82.0087l0 60.0886 388.36 0 0 -60.0886c0,-31.9134 -13.0748,-60.9461 -34.1362,-82.0087 -21.0626,-21.0614 -50.0953,-34.1362 -82.0087,-34.1362l-10.8756 0c-9.06969,6.63189 -18.5847,12.078 -28.4776,16.0713 -12.4571,5.02796 -25.3961,7.78819 -38.6823,7.78819 -13.2862,0 -26.2252,-2.76024 -38.6823,-7.78819 -9.89292,-3.99449 -19.4091,-9.44056 -28.4776,-16.0713z"/>
  <path class="fil1" d="M498.18 990.914c47.1591,0 90.2351,11.6433 121.143,36.3603 29.2559,23.3941 47.1189,57.4146 47.1189,102.998 0,47.726 -20.8465,111.415 -53.83,159.269 -29.491,42.7843 -69.254,74.0268 -114.432,74.0268 -45.1796,0 -84.9414,-31.2437 -114.431,-74.028 -32.9847,-47.8536 -53.8311,-111.542 -53.8311,-159.268 0,-45.5835 17.863,-79.604 47.1189,-102.998 30.9083,-24.7169 73.9843,-36.3603 121.143,-36.3603zm91.33 73.6737c-21.8244,-17.452 -54.4217,-25.6736 -91.33,-25.6736 -36.9083,0 -69.5056,8.22166 -91.33,25.6736 -17.9634,14.3646 -28.9323,35.9918 -28.9323,65.6847 0,39.0969 17.5063,91.8957 45.2067,132.082 21.1984,30.7547 47.7107,53.2146 75.0556,53.2146 27.3449,0 53.8583,-22.4587 75.0568,-53.2134 27.6992,-40.187 45.2055,-92.9847 45.2055,-132.083 0,-29.6929 -10.9689,-51.3201 -28.9323,-65.6847z"/>
 </g>
 <rect class="fil2" width="2048" height="2048"/>
</svg>
